<svg width="116" height="22" viewBox="0 0 116 22" fill="none" xmlns="http://www.w3.org/2000/svg">
    <path
        d="M92.1195 2.97513H104.233V5.37444H94.6216V11.0461H103.199V13.4454H94.6216V19.2199H104.593V21.6192H92.1195V2.98982V2.97513ZM54.582 21.6045V2.38086H54.6114L64.3773 16.2409L63.3207 16.0355L73.0646 2.38086H73.116V21.6045H70.6433V8.05256L70.7974 9.31455L63.761 19.2639H63.7096L56.5704 9.31455L57.0107 8.15529V21.6045H54.5894H54.582ZM33.0765 2.97513H35.5785V21.6045H33.0765V2.97513ZM2.51668 19.2052H5.50296C6.53018 19.2052 7.47668 19.0511 8.33514 18.7429C9.20827 18.4348 9.96403 17.9872 10.6024 17.4002C11.2554 16.8133 11.7617 16.1015 12.1212 15.2651C12.4807 14.4066 12.6641 13.4381 12.6641 12.3522C12.6641 11.2002 12.4734 10.195 12.0992 9.33658C11.7176 8.46345 11.204 7.72973 10.551 7.14275C9.89799 6.55576 9.15691 6.12284 8.33514 5.82934C7.51336 5.52118 6.64023 5.36709 5.73041 5.36709H2.50934V19.2052H2.51668ZM0.0146889 21.6045V2.97513H5.09207C6.93373 2.97513 8.49658 3.26131 9.7806 3.82628C11.0866 4.39125 12.1358 5.13961 12.9209 6.07144C13.706 7.00328 14.2857 8.03056 14.6452 9.1605C15.0268 10.2758 15.2102 11.391 15.2102 12.5136C15.2102 13.9224 14.9607 15.1844 14.4618 16.2997C13.9775 17.4149 13.3098 18.3688 12.4514 19.1612C11.5929 19.9536 10.6024 20.5626 9.48709 20.9882C8.3865 21.3991 7.2199 21.6045 5.9799 21.6045H0H0.0146889Z"
        fill="#1E1E1E" />
    <path
        d="M113.44 4.35656L114.042 5.64059H113.147L112.641 4.37116L113.448 4.35656H113.44ZM112.721 3.9236C112.897 3.9236 113.022 3.88698 113.081 3.80627C113.154 3.72556 113.184 3.63015 113.184 3.50541C113.184 3.37334 113.147 3.27058 113.066 3.18987C112.993 3.10182 112.89 3.05785 112.751 3.05785H112.421V3.9236H112.721ZM111.628 2.45614H112.883C113.242 2.45614 113.521 2.54419 113.719 2.72762C113.917 2.89638 114.02 3.14586 114.02 3.47604C114.02 3.74752 113.932 3.98965 113.749 4.20976C113.58 4.42988 113.308 4.53999 112.927 4.53999H112.421V5.64784H111.628V2.46349V2.45614ZM112.751 6.41829C113.191 6.41829 113.587 6.31554 113.932 6.11744C114.292 5.91933 114.57 5.64052 114.768 5.29567C114.981 4.93614 115.084 4.53266 115.084 4.08509C115.084 3.63751 114.981 3.23396 114.768 2.88911C114.57 2.52958 114.292 2.25075 113.932 2.05265C113.58 1.83987 113.191 1.7371 112.751 1.7371C112.31 1.7371 111.929 1.83987 111.569 2.05265C111.217 2.25075 110.938 2.52958 110.733 2.88911C110.535 3.2413 110.432 3.63751 110.432 4.08509C110.432 4.53266 110.535 4.93614 110.733 5.29567C110.946 5.64786 111.225 5.91933 111.569 6.11744C111.929 6.31554 112.325 6.41829 112.751 6.41829ZM112.765 7.21069C112.186 7.21069 111.65 7.07867 111.166 6.80719C110.689 6.53571 110.3 6.16884 110.014 5.69925C109.735 5.22233 109.596 4.67941 109.596 4.08509C109.596 3.49077 109.735 2.95511 110.014 2.48552C110.3 2.01594 110.689 1.64906 111.166 1.37759C111.657 1.10611 112.186 0.973999 112.765 0.973999C113.345 0.973999 113.888 1.10611 114.365 1.37759C114.842 1.64906 115.223 2.01594 115.502 2.48552C115.788 2.95511 115.935 3.49077 115.935 4.08509C115.935 4.67941 115.788 5.21498 115.502 5.68456C115.223 6.15415 114.842 6.52837 114.365 6.80719C113.888 7.07867 113.352 7.21069 112.765 7.21069Z"
        fill="#1E1E1E" />
</svg>