<svg width="272" height="185" viewBox="0 0 272 185" fill="none" xmlns="http://www.w3.org/2000/svg">
<g clip-path="url(#clip0_3247_177417)">
<path d="M94.659 60.9542C96.1818 66.3896 99.0472 73.0071 105.085 74.5662C110.134 75.8694 115.22 73.1756 119.133 70.2078C121.961 68.0578 124.472 65.5014 126.748 62.7774L125.49 62.2273C125.266 65.0489 126.409 67.7849 128.262 69.874C130.114 71.963 132.852 73.4605 135.729 73.9295C141.741 74.9022 147.354 72.2108 151.997 68.6188C154.608 66.5982 156.973 64.269 159.229 61.8561C159.879 61.1637 158.854 60.0913 158.203 60.7912C154.449 64.793 150.326 68.7507 145.276 71.0595C140.496 73.2398 134.402 73.5042 130.28 69.8004C128.143 67.884 126.747 65.173 126.972 62.255C127.021 61.6477 126.131 61.2157 125.714 61.7049C123.742 64.0637 121.601 66.2933 119.221 68.2514C117.202 69.9121 114.979 71.4059 112.55 72.3915C110.584 73.1929 108.366 73.6261 106.377 73.3294C104.187 72.9992 102.34 71.8596 100.842 70.2296C98.3998 67.5658 97.0494 64.0176 96.0899 60.5879C95.8326 59.6708 94.3945 60.0296 94.6516 60.9541L94.659 60.9542Z" fill="white"/>
<path d="M109.29 63.1456C105.019 67.4566 101.032 72.0548 97.3665 76.8889C96.3171 78.2711 95.297 79.6761 94.2989 81.0963C93.7502 81.8797 95.0191 82.6451 95.5676 81.8691C98.9965 76.9787 102.748 72.3167 106.79 67.9199C107.948 66.6658 109.129 65.427 110.331 64.2108C111.003 63.5336 109.978 62.4612 109.305 63.1458L109.29 63.1456Z" fill="white"/>
<path d="M141.275 62.2186C138.374 63.0915 136.124 65.193 134.227 67.4791C132.08 70.072 130.137 72.8467 128.37 75.7137C127.353 77.3635 126.394 79.0589 125.501 80.7778C125.063 81.6225 126.324 82.3952 126.77 81.5506C128.286 78.6343 129.977 75.8179 131.845 73.1159C133.56 70.6336 135.366 68.0788 137.614 66.0515C138.791 64.9906 140.127 64.1107 141.649 63.657C142.559 63.3848 142.2 61.9466 141.283 62.2187L141.275 62.2186Z" fill="white"/>
<path d="M159.074 68.0806C159.904 68.8675 160.561 69.8588 160.845 70.9321C160.983 71.4539 161.019 71.907 160.893 72.3348C160.877 72.3939 160.861 72.4455 160.838 72.497C160.783 72.6517 160.876 72.4384 160.799 72.5778C160.768 72.644 160.73 72.7026 160.692 72.7613C160.692 72.7613 160.562 72.9443 160.638 72.8493C160.426 73.1123 160.238 73.2423 159.968 73.393C159.136 73.8596 159.861 75.1562 160.693 74.6897C161.413 74.2878 161.965 73.6973 162.254 72.9239C162.504 72.2463 162.481 71.4819 162.331 70.7893C162.023 69.3818 161.166 68.0381 160.131 67.0546C159.439 66.3964 158.366 67.4222 159.066 68.0805L159.074 68.0806Z" fill="white"/>
<path d="M192.511 53.6249C190.294 60.318 188.402 67.1285 186.864 74.0123C185.326 80.8962 184.136 87.8606 183.285 94.8611C182.803 98.8276 182.44 102.804 182.187 106.789L183.573 106.444C181.059 102.474 181.582 97.4994 182.014 93.0499C182.509 87.9786 183.153 82.9026 184.299 77.9325C184.872 75.4585 185.563 73.0164 186.416 70.6293C187.229 68.3675 188.125 66.0479 189.41 64.01C190.449 62.368 191.982 60.9132 194.042 60.9814C194.858 61.0115 195.705 61.2943 196.235 61.942C196.953 62.8084 196.944 64.0617 196.88 65.1211C196.557 70.4701 193.215 75.0951 190.002 79.1441C189.599 79.6558 190.238 80.4316 190.82 80.2496C194.237 79.1564 198.425 79.6797 200.44 82.9807C203.132 87.3996 200.813 92.778 198.264 96.6614C196.806 98.8815 195.193 101.017 193.611 103.153C192.028 105.289 190.409 107.41 188.694 109.447C185.266 113.522 181.442 117.337 176.945 120.22C174.708 121.654 172.16 123.053 169.405 122.853C167.538 122.714 165.511 121.66 165.05 119.708C164.659 118.047 165.426 116.296 166.443 115.017C167.803 113.314 169.419 111.75 171.128 110.41C178.279 104.818 187.524 103.032 195.866 99.9616C198.002 99.1782 200.117 98.3129 202.146 97.2901C204.452 96.1317 206.6 94.7107 208.74 93.2821C210.881 91.8535 213.202 90.2429 215.47 88.7796C217.076 87.7416 218.759 86.5863 220.588 85.9678C220.872 85.8693 221.162 85.7931 221.46 85.7393C221.475 85.7396 221.713 85.7144 221.549 85.7262C221.616 85.7274 221.683 85.7138 221.75 85.7151C221.816 85.7163 222.172 85.76 221.98 85.7194L222.399 84.2957C220.98 84.0393 219.539 84.539 218.367 85.3256C217.301 86.0399 216.146 87.1309 216.031 88.4934C215.906 90.0561 216.953 91.5738 218.506 91.8253C219.948 92.0599 221.2 91.6977 222.352 90.8069C222.939 90.3506 223.468 89.819 224.04 89.3476C224.741 88.7674 225.521 88.3073 226.365 87.967C226.896 87.7544 226.822 86.952 226.389 86.6843C225.121 85.9115 223.852 85.1387 222.576 84.3732L221.803 85.6419C225.045 87.5863 228.28 89.5306 231.522 91.4677C232.835 92.2487 234.356 93.0114 235.901 92.4618C237.036 92.0602 237.847 91.1334 238.349 90.0599C238.967 88.7438 239.239 87.2952 239.355 85.851L237.872 85.8234C237.976 87.813 238.949 90.9314 241.506 90.6158C242.911 90.4418 243.936 89.1778 244.931 88.2915C246.176 87.1874 247.413 86.0757 248.657 84.9716C250.098 83.6857 251.538 82.4072 252.979 81.1214L251.754 80.379C247.964 89.5349 246.238 99.3597 245.091 109.151C244.517 114.072 244.054 119.011 243.605 123.949C243.147 129.036 242.77 134.147 242.793 139.258C242.813 144.902 243.323 150.563 244.689 156.048C244.917 156.972 246.355 156.606 246.128 155.682C243.692 145.905 244.09 135.744 244.936 125.791C245.354 120.867 245.824 115.951 246.368 111.036C246.912 106.122 247.558 101.335 248.523 96.5394C249.602 91.1601 251.088 85.8625 253.186 80.7914C253.488 80.0628 252.466 79.5987 251.961 80.0491C249.178 82.5263 246.394 85.0109 243.611 87.4881C243.031 88.0039 242.469 88.698 241.751 89.0183C241.369 89.1892 240.976 89.2115 240.624 88.9676C239.687 88.3345 239.425 86.8833 239.37 85.8439C239.321 84.8936 237.964 84.8609 237.887 85.8162C237.8 86.8975 237.609 87.9768 237.22 88.993C236.908 89.7956 236.394 90.6835 235.55 91.0237C234.257 91.541 232.94 90.5819 231.884 89.9466C230.432 89.0739 228.987 88.2088 227.534 87.3362C225.884 86.3486 224.241 85.3611 222.591 84.3735C221.769 83.8835 221.004 85.1449 221.818 85.6422C223.087 86.415 224.355 87.1878 225.631 87.9533L225.655 86.6706C224.43 87.1669 223.399 87.9339 222.419 88.8056C221.717 89.4303 221.014 90.1515 220.061 90.3636C219.562 90.4729 218.932 90.4686 218.445 90.2963C217.907 90.1009 217.688 89.5405 217.579 89.0267C217.388 88.1405 218.121 87.3903 218.799 86.8541C219.627 86.202 220.9 85.5286 221.994 85.7271C222.926 85.8928 223.353 84.4767 222.414 84.3034C220.862 84.0149 219.266 84.8528 217.94 85.5698C215.745 86.7525 213.686 88.1826 211.628 89.5756C209.119 91.2718 206.632 92.9979 204.043 94.5665C202.018 95.7895 199.87 96.81 197.673 97.6961C188.937 101.249 179.22 102.847 171.396 108.39C170.419 109.084 169.478 109.823 168.587 110.629C167.697 111.436 166.886 112.348 166.069 113.245C164.683 114.762 163.545 116.521 163.476 118.648C163.409 120.649 164.481 122.42 166.205 123.401C168.752 124.843 171.718 124.468 174.305 123.36C176.915 122.244 179.305 120.523 181.504 118.747C183.703 116.971 185.629 115.101 187.492 113.074C191.33 108.896 194.68 104.286 197.985 99.6822C201.099 95.3422 204.276 90.0539 202.704 84.499C202.14 82.5156 200.934 80.7649 199.197 79.6422C197.46 78.5195 195.48 78.1339 193.512 78.2529C192.48 78.3152 191.46 78.5112 190.468 78.8264L191.285 79.932C194.438 75.9561 197.501 71.5706 198.25 66.4298C198.573 64.1885 198.552 61.3549 196.299 60.1038C194.412 59.0599 192.046 59.4756 190.376 60.7349C188.42 62.2114 187.36 64.5502 186.399 66.7277C185.292 69.2436 184.39 71.8523 183.651 74.5012C182.188 79.7769 181.374 85.2131 180.783 90.6535C180.192 96.0939 179.215 102.328 182.291 107.184C182.688 107.807 183.634 107.58 183.677 106.839C184.127 99.8314 184.918 92.852 186.063 85.9237C187.208 79.0326 188.693 72.1923 190.517 65.4473C191.553 61.6247 192.692 57.8262 193.942 54.067C194.24 53.1603 192.817 52.7406 192.518 53.6473L192.511 53.6249Z" fill="white"/>
<path d="M30.724 127H25.082V117.858H30.612C31.648 117.858 32.362 118.208 32.81 118.656C33.202 119.048 33.426 119.538 33.426 120.098C33.426 120.938 32.922 121.694 32.264 121.96C33.328 122.212 33.93 123.15 33.93 124.27C33.93 124.942 33.706 125.628 33.09 126.216C32.642 126.636 32.04 127 30.724 127ZM30.78 122.898H26.65V125.6H30.78C31.214 125.6 31.634 125.46 31.914 125.18C32.152 124.942 32.292 124.592 32.292 124.256C32.292 123.92 32.152 123.626 31.928 123.388C31.648 123.094 31.242 122.898 30.78 122.898ZM30.444 119.258H26.65V121.638H30.444C30.822 121.638 31.158 121.554 31.41 121.302C31.648 121.064 31.788 120.728 31.788 120.392C31.788 120.084 31.662 119.804 31.466 119.608C31.214 119.356 30.878 119.258 30.444 119.258ZM36.6794 127L40.9214 117.858H42.3494L46.5914 127H44.8694L43.7634 124.536H39.4094L38.3174 127H36.6794ZM41.5514 119.734L39.9694 123.276H43.2034L41.6354 119.734H41.5514ZM54.9941 117.858H56.8421L53.0901 122.786V127H51.5221V122.786L47.7701 117.858H49.7581L52.3761 121.386L54.9941 117.858ZM60.0437 117.858H61.6117V125.6H67.2257V127H60.0437V117.858ZM75.5902 121.526V122.926H72.0762V125.6H78.2642V127H70.5082V117.858H77.9282V119.258H72.0762V121.526H75.5902ZM86.9843 121.526V122.926H83.4703V125.6H89.6583V127H81.9023V117.858H89.3223V119.258H83.4703V121.526H86.9843ZM99.409 127H97.841V117.858H102.881C104.099 117.858 104.939 118.194 105.527 118.824C105.989 119.314 106.255 119.958 106.255 120.658C106.255 121.89 105.443 122.828 104.239 123.276L106.423 127H104.617L102.657 123.486H99.409V127ZM102.881 119.258H99.409V122.086H103.161C103.987 122.086 104.687 121.442 104.687 120.658C104.687 120.308 104.547 120 104.309 119.748C103.875 119.3 103.371 119.258 102.881 119.258ZM115.288 121.526V122.926H111.774V125.6H117.962V127H110.206V117.858H117.626V119.258H111.774V121.526H115.288ZM121.6 117.858H123.168V125.6H128.782V127H121.6V117.858ZM133.632 127H132.064V117.858H139.414V119.258H133.632V121.526H137.146V122.926H133.632V127Z" fill="white"/>
<path d="M34.546 146H33.608V138.524H33.538L30.024 144.404H29.772L26.258 138.524H26.188V146H25.292V136.858H26.328L29.926 142.878H29.954L33.538 136.858H34.546V146ZM38.0538 140.918L37.7318 140.218C38.2778 139.868 39.3278 139.392 40.6158 139.392C42.0018 139.392 43.4718 139.868 43.4718 141.296V144.838C43.4718 145.174 43.5138 145.65 43.6958 146H42.8138C42.6598 145.748 42.6178 145.328 42.6038 145.006C42.1138 145.468 41.1198 146.14 39.7478 146.14C38.1378 146.14 37.1858 145.202 37.1858 143.942C37.1858 142.752 38.2218 141.8 40.1258 141.8C40.9938 141.8 42.0578 142.01 42.6038 142.612V141.52C42.6038 140.512 41.6098 140.12 40.5878 140.12C39.4958 140.12 38.5158 140.596 38.0538 140.918ZM39.9158 145.412C41.3718 145.412 42.4918 144.446 42.6038 144.264V143.34C42.1698 142.766 41.2038 142.486 40.2518 142.486C38.7258 142.486 38.0538 143.13 38.0538 143.942C38.0538 144.754 38.7118 145.412 39.9158 145.412ZM51.6016 140.19L51.2516 140.848C50.8316 140.554 49.8516 140.092 48.8156 140.092C48.0036 140.092 47.0796 140.4 47.0796 141.198C47.0796 142.08 48.2416 142.136 49.0956 142.178C50.2016 142.234 52.0916 142.332 52.0916 144.068C52.0916 145.524 50.7196 146.196 49.0676 146.196C47.5556 146.196 46.5896 145.636 45.9596 145.188L46.3096 144.53C46.9116 144.95 47.7796 145.482 49.0536 145.482C50.2436 145.482 51.2236 145.034 51.2236 144.138C51.2236 143.13 49.9356 143.046 49.0956 143.004C47.7656 142.92 46.2116 142.836 46.2116 141.296C46.2116 139.826 47.6256 139.364 48.8016 139.364C50.0336 139.364 51.1256 139.854 51.6016 140.19ZM53.6999 140.26V139.574H55.0299V137.6H55.8979V139.574H58.0259V140.26H55.8979V144.418C55.8979 145.16 56.3879 145.454 56.9059 145.454C57.2979 145.454 57.8439 145.314 58.0819 145.16L58.2079 145.832C57.9279 146.042 57.2699 146.224 56.7519 146.224C55.9679 146.224 55.0299 145.776 55.0299 144.418V140.26H53.6999ZM65.8203 144.404L66.4083 144.964C65.7083 145.65 64.6023 146.182 63.2863 146.182C61.2003 146.182 59.9403 144.684 59.9403 142.864C59.9403 140.918 61.4103 139.392 63.3563 139.392C64.8683 139.392 66.5623 140.33 66.5903 142.528C66.5903 142.612 66.5903 142.71 66.5763 142.808H60.8083V142.836C60.8083 144.25 61.7463 145.412 63.3703 145.412C64.3783 145.412 65.2603 145.006 65.8203 144.404ZM63.3143 140.106C62.0683 140.106 61.1583 140.988 60.8923 142.122H65.6383C65.5963 140.764 64.3923 140.106 63.3143 140.106ZM70.0727 146H69.2047V141.1C69.2047 140.61 69.1487 140.106 68.9947 139.574H69.8067C69.9327 139.952 69.9747 140.288 69.9887 140.708C70.4367 140.05 71.0667 139.392 72.0047 139.392C72.4247 139.392 72.8307 139.518 73.0267 139.77L72.7327 140.54C72.5367 140.33 72.1027 140.232 71.8227 140.232C71.0527 140.232 70.4787 140.904 70.0727 141.464V146ZM83.8657 140.75V141.576H80.0157V145.16H86.6797V146H79.0777V136.858H86.3717V137.698H80.0157V140.75H83.8657ZM93.9341 140.19L93.5841 140.848C93.1641 140.554 92.1841 140.092 91.1481 140.092C90.3361 140.092 89.4121 140.4 89.4121 141.198C89.4121 142.08 90.5741 142.136 91.4281 142.178C92.5341 142.234 94.4241 142.332 94.4241 144.068C94.4241 145.524 93.0521 146.196 91.4001 146.196C89.8881 146.196 88.9221 145.636 88.2921 145.188L88.6421 144.53C89.2441 144.95 90.1121 145.482 91.3861 145.482C92.5761 145.482 93.5561 145.034 93.5561 144.138C93.5561 143.13 92.2681 143.046 91.4281 143.004C90.0981 142.92 88.5441 142.836 88.5441 141.296C88.5441 139.826 89.9581 139.364 91.1341 139.364C92.3661 139.364 93.4581 139.854 93.9341 140.19ZM96.0324 140.26V139.574H97.3624V137.6H98.2304V139.574H100.358V140.26H98.2304V144.418C98.2304 145.16 98.7204 145.454 99.2384 145.454C99.6304 145.454 100.176 145.314 100.414 145.16L100.54 145.832C100.26 146.042 99.6024 146.224 99.0844 146.224C98.3004 146.224 97.3624 145.776 97.3624 144.418V140.26H96.0324ZM103.659 146H102.791V136.2H103.659V140.512C104.163 139.966 105.003 139.392 106.067 139.392C107.593 139.392 108.615 140.33 108.615 141.632V146H107.733V141.632C107.733 140.806 107.019 140.148 105.983 140.148C104.947 140.148 104.163 140.764 103.659 141.296V146ZM117.022 144.404L117.61 144.964C116.91 145.65 115.804 146.182 114.488 146.182C112.402 146.182 111.142 144.684 111.142 142.864C111.142 140.918 112.612 139.392 114.558 139.392C116.07 139.392 117.764 140.33 117.792 142.528C117.792 142.612 117.792 142.71 117.778 142.808H112.01V142.836C112.01 144.25 112.948 145.412 114.572 145.412C115.58 145.412 116.462 145.006 117.022 144.404ZM114.516 140.106C113.27 140.106 112.36 140.988 112.094 142.122H116.84C116.798 140.764 115.594 140.106 114.516 140.106ZM119.454 140.26V139.574H120.784V137.6H121.652V139.574H123.78V140.26H121.652V144.418C121.652 145.16 122.142 145.454 122.66 145.454C123.052 145.454 123.598 145.314 123.836 145.16L123.962 145.832C123.682 146.042 123.024 146.224 122.506 146.224C121.722 146.224 120.784 145.776 120.784 144.418V140.26H119.454ZM127.081 146H126.213V139.574H127.081V146ZM126.045 137.026C126.045 136.718 126.297 136.466 126.633 136.466C126.983 136.466 127.235 136.718 127.235 137.026C127.235 137.334 126.983 137.572 126.633 137.572C126.297 137.572 126.045 137.32 126.045 137.026ZM135.969 140.442L135.381 141.03C134.765 140.442 133.953 140.148 133.183 140.148C131.797 140.148 130.663 141.184 130.663 142.766C130.663 144.376 131.853 145.412 133.267 145.412C134.373 145.412 135.143 144.81 135.535 144.39L136.123 144.936C135.857 145.258 134.835 146.182 133.183 146.182C131.321 146.182 129.711 144.838 129.711 142.766C129.711 140.736 131.279 139.392 133.183 139.392C134.177 139.392 135.185 139.728 135.969 140.442ZM139.419 146H138.551V139.574H139.419V146ZM138.383 137.026C138.383 136.718 138.635 136.466 138.971 136.466C139.321 136.466 139.573 136.718 139.573 137.026C139.573 137.334 139.321 137.572 138.971 137.572C138.635 137.572 138.383 137.32 138.383 137.026ZM142.819 140.918L142.497 140.218C143.043 139.868 144.093 139.392 145.381 139.392C146.767 139.392 148.237 139.868 148.237 141.296V144.838C148.237 145.174 148.279 145.65 148.461 146H147.579C147.425 145.748 147.383 145.328 147.369 145.006C146.879 145.468 145.885 146.14 144.513 146.14C142.903 146.14 141.951 145.202 141.951 143.942C141.951 142.752 142.987 141.8 144.891 141.8C145.759 141.8 146.823 142.01 147.369 142.612V141.52C147.369 140.512 146.375 140.12 145.353 140.12C144.261 140.12 143.281 140.596 142.819 140.918ZM144.681 145.412C146.137 145.412 147.257 144.446 147.369 144.264V143.34C146.935 142.766 145.969 142.486 145.017 142.486C143.491 142.486 142.819 143.13 142.819 143.942C142.819 144.754 143.477 145.412 144.681 145.412ZM152.208 146H151.34V141.1C151.34 140.61 151.284 140.106 151.144 139.574H151.942C152.068 139.924 152.11 140.218 152.124 140.596C152.684 139.994 153.482 139.392 154.686 139.392C156.114 139.392 157.164 140.33 157.164 141.632V146H156.282V141.632C156.282 140.806 155.582 140.148 154.546 140.148C153.51 140.148 152.726 140.75 152.208 141.296V146ZM170.773 137.894L170.311 138.622C169.891 138.356 169.205 138.034 168.351 138.034C167.399 138.034 166.573 138.482 166.573 139.224C166.573 139.98 167.567 140.764 168.043 141.212L170.745 143.732C171.291 143.242 171.837 142.612 172.383 141.828L173.139 142.22C172.537 143.06 171.921 143.732 171.333 144.278L173.209 146H171.963L170.675 144.824C169.331 145.846 168.085 146.182 167.175 146.182C165.789 146.182 163.969 145.482 163.969 143.564C163.969 141.954 165.173 141.24 166.391 140.82C165.929 140.33 165.635 139.854 165.635 139.252C165.635 137.936 166.965 137.208 168.365 137.208C169.429 137.208 170.227 137.586 170.773 137.894ZM167.315 141.716L166.979 141.422C166.125 141.702 164.907 142.178 164.907 143.522C164.907 144.894 166.293 145.342 167.245 145.342C167.973 145.342 168.995 145.076 170.087 144.278L167.315 141.716ZM180.423 146H179.485V136.858H186.597V137.698H180.423V140.904H184.273V141.744H180.423V146ZM186.924 142.766C186.924 140.89 188.408 139.392 190.382 139.392C192.356 139.392 193.854 140.89 193.854 142.766C193.854 144.684 192.356 146.182 190.382 146.182C188.408 146.182 186.924 144.684 186.924 142.766ZM187.834 142.766C187.834 144.236 188.898 145.454 190.382 145.454C191.866 145.454 192.958 144.236 192.958 142.766C192.958 141.338 191.866 140.106 190.382 140.106C188.898 140.106 187.834 141.338 187.834 142.766ZM201.347 139.574H202.215V144.46C202.215 144.95 202.229 145.468 202.327 146H201.529C201.459 145.678 201.431 145.3 201.431 144.978C200.871 145.566 200.073 146.182 198.883 146.182C197.441 146.182 196.391 145.244 196.391 143.942V139.574H197.273V143.942C197.273 144.768 197.987 145.426 199.009 145.426C200.045 145.426 200.829 144.824 201.347 144.278V139.574ZM206.281 146H205.413V141.1C205.413 140.61 205.357 140.106 205.217 139.574H206.015C206.141 139.924 206.183 140.218 206.197 140.596C206.757 139.994 207.555 139.392 208.759 139.392C210.187 139.392 211.237 140.33 211.237 141.632V146H210.355V141.632C210.355 140.806 209.655 140.148 208.619 140.148C207.583 140.148 206.799 140.75 206.281 141.296V146ZM220.442 146H219.63C219.56 145.678 219.532 145.328 219.532 145.006C219.182 145.468 218.286 146.182 217.096 146.182C215.304 146.182 213.806 144.838 213.806 142.766C213.806 140.736 215.318 139.392 217.11 139.392C217.936 139.392 218.776 139.77 219.448 140.428V136.2H220.316V144.46C220.316 144.95 220.329 145.468 220.442 146ZM217.18 140.148C215.85 140.148 214.772 141.184 214.772 142.766C214.772 144.376 215.85 145.426 217.18 145.426C218.37 145.426 219.196 144.642 219.448 144.334V141.226C218.79 140.568 217.978 140.148 217.18 140.148ZM228.855 144.404L229.443 144.964C228.743 145.65 227.637 146.182 226.321 146.182C224.235 146.182 222.975 144.684 222.975 142.864C222.975 140.918 224.445 139.392 226.391 139.392C227.903 139.392 229.597 140.33 229.625 142.528C229.625 142.612 229.625 142.71 229.611 142.808H223.843V142.836C223.843 144.25 224.781 145.412 226.405 145.412C227.413 145.412 228.295 145.006 228.855 144.404ZM226.349 140.106C225.103 140.106 224.193 140.988 223.927 142.122H228.673C228.631 140.764 227.427 140.106 226.349 140.106ZM233.108 146H232.24V141.1C232.24 140.61 232.184 140.106 232.03 139.574H232.842C232.968 139.952 233.01 140.288 233.024 140.708C233.472 140.05 234.102 139.392 235.04 139.392C235.46 139.392 235.866 139.518 236.062 139.77L235.768 140.54C235.572 140.33 235.138 140.232 234.858 140.232C234.088 140.232 233.514 140.904 233.108 141.464V146Z" fill="white"/>
</g>
<defs>
<clipPath id="clip0_3247_177417">
<rect width="271" height="185" fill="white" transform="translate(0.5)"/>
</clipPath>
</defs>
</svg>
